<svg width="49" height="48" viewBox="0 0 49 48" fill="none"
	xmlns="http://www.w3.org/2000/svg">
	<g clip-path="url(#clip0_5_20)">
		<g filter="url(#filter0_d_5_20)">
			<path d="M24.5 12.506V38.506M24.5 12.506C22.164 10.954 18.992 10 15.5 10C12.008 10 8.836 10.954 6.5 12.506V38.506C8.836 36.954 12.008 36 15.5 36C18.992 36 22.164 36.954 24.5 38.506M24.5 12.506C26.836 10.954 30.008 10 33.5 10C36.994 10 40.164 10.954 42.5 12.506V38.506C40.164 36.954 36.994 36 33.5 36C30.008 36 26.836 36.954 24.5 38.506" stroke="white" stroke-width="4" stroke-linecap="round" stroke-linejoin="round" shape-rendering="crispEdges"/>
		</g>
	</g>
	<defs>
		<filter id="filter0_d_5_20" x="0.5" y="8" width="48" height="40.506" filterUnits="userSpaceOnUse" color-interpolation-filters="sRGB">
			<feFlood flood-opacity="0" result="BackgroundImageFix"/>
			<feColorMatrix in="SourceAlpha" type="matrix" values="0 0 0 0 0 0 0 0 0 0 0 0 0 0 0 0 0 0 127 0" result="hardAlpha"/>
			<feOffset dy="4"/>
			<feGaussianBlur stdDeviation="2"/>
			<feComposite in2="hardAlpha" operator="out"/>
			<feColorMatrix type="matrix" values="0 0 0 0 0 0 0 0 0 0 0 0 0 0 0 0 0 0 0.25 0"/>
			<feBlend mode="normal" in2="BackgroundImageFix" result="effect1_dropShadow_5_20"/>
			<feBlend mode="normal" in="SourceGraphic" in2="effect1_dropShadow_5_20" result="shape"/>
		</filter>
		<clipPath id="clip0_5_20">
			<rect width="48" height="48" fill="#EAEAEA"/>
		</clipPath>
	</defs>
</svg>
