<svg width="28" height="24" viewBox="0 0 28 24" fill="none"
	xmlns="http://www.w3.org/2000/svg">
	<path d="M19.4107 12.5902C19.8637 12.5902 20.26 12.7869 20.5997 13.1803C20.9393 13.5738 21.1739 14 21.3033 14.459C21.5298 15.1475 21.6025 15.8525 21.5217 16.5738C21.4408 17.2951 21.1415 17.9508 20.6239 18.541C20.2681 18.9344 19.8637 19.1311 19.4107 19.1311C18.9255 19.1311 18.513 18.9344 18.1733 18.541C17.8336 18.1475 17.5829 17.7213 17.4211 17.2623C17.2594 16.5738 17.2189 15.8689 17.2998 15.1475C17.3807 14.4262 17.6638 13.7705 18.149 13.1803C18.5373 12.7869 18.9578 12.5902 19.4107 12.5902ZM8.63778 12.5902C9.0907 12.5902 9.487 12.7869 9.82669 13.1803C10.1664 13.5738 10.4171 14 10.5789 14.459C10.773 15.1475 10.8296 15.8525 10.7487 16.5738C10.6678 17.2951 10.3686 17.9508 9.85095 18.541C9.49509 18.9344 9.0907 19.1311 8.63778 19.1311C8.15251 19.1311 7.74004 18.9344 7.40035 18.541C7.06066 18.1475 6.80994 17.7213 6.64818 17.2623C6.48642 16.5738 6.44599 15.8689 6.52686 15.1475C6.60774 14.4262 6.89081 13.7705 7.37608 13.1803C7.7643 12.7869 8.18486 12.5902 8.63778 12.5902ZM25.7192 6.59016C27.2397 8.36066 28 10.623 28 13.377C28 15.7377 27.6603 17.623 26.9809 19.0328C26.528 19.8852 25.9295 20.6311 25.1854 21.2705C24.4414 21.9098 23.6488 22.3934 22.8076 22.7213C22.3871 22.8852 21.9422 23.041 21.4731 23.1885C21.004 23.3361 20.4945 23.459 19.9445 23.5574C19.3946 23.6557 18.885 23.7295 18.4159 23.7787C17.9469 23.8279 17.502 23.8689 17.0815 23.9016C16.6609 23.9344 16.2161 23.959 15.747 23.9754C15.2779 23.9918 14.7845 24 14.2669 24H13.0052L11.8891 23.9508L10.7244 23.8771L9.41421 23.7541C8.54073 23.6557 7.68342 23.4754 6.84229 23.2131C5.67764 22.8852 4.55344 22.3934 3.46967 21.7377C2.3859 21.082 1.58521 20.1803 1.06759 19.0328C0.355864 17.623 0 15.7377 0 13.377C0 10.6885 0.760254 8.42623 2.28076 6.59016C1.9896 5.67213 1.84402 4.72131 1.84402 3.7377C1.84402 2.42623 2.13518 1.18033 2.7175 0C3.94685 0 4.99827 0.229508 5.87175 0.688525C6.35702 0.918033 6.85846 1.20492 7.37608 1.54918C7.8937 1.89344 8.45985 2.29508 9.07452 2.7541C10.7244 2.36066 12.4552 2.16393 14.2669 2.16393C15.8845 2.16393 17.4535 2.34426 18.974 2.70492C20.1063 1.78689 21.1577 1.09836 22.1283 0.639344C23.0017 0.213115 24.0693 0 25.331 0C25.881 1.21311 26.156 2.45902 26.156 3.7377C26.156 4.72131 26.0104 5.67213 25.7192 6.59016ZM22.3224 20.2623C22.8723 19.8033 23.3252 19.2049 23.6811 18.4672C24.037 17.7295 24.2149 16.8689 24.2149 15.8852C24.2149 14.5082 23.8267 13.3443 23.0503 12.3934C22.3385 11.4426 21.3033 10.9672 19.9445 10.9672C19.6857 10.9672 19.2894 10.9918 18.7556 11.041C18.2218 11.0902 17.5182 11.1803 16.6447 11.3115C16.2565 11.377 15.8359 11.4262 15.383 11.459C14.9301 11.4918 14.4772 11.5082 14.0243 11.5082C13.539 11.5082 13.0699 11.4918 12.617 11.459C12.1641 11.4262 11.7435 11.377 11.3553 11.3115C10.5142 11.1803 9.82669 11.0902 9.29289 11.041C8.7591 10.9918 8.3628 10.9672 8.10399 10.9672C6.74523 10.9672 5.69382 11.4426 4.94974 12.3934C4.17331 13.3443 3.7851 14.5082 3.7851 15.8852C3.7851 16.8689 3.96303 17.7295 4.31889 18.4672C4.67475 19.2049 5.12767 19.8033 5.67764 20.2623C6.25997 20.6885 6.93934 21.0164 7.71577 21.2459C8.5569 21.5082 9.34951 21.6803 10.0936 21.7623C10.8377 21.8443 11.6626 21.8852 12.5685 21.8852H15.4315C16.3697 21.8852 17.2028 21.8443 17.9307 21.7623C18.6586 21.6803 19.4431 21.5082 20.2842 21.2459C21.0607 21.0164 21.74 20.6885 22.3224 20.2623Z" fill="white"/>
</svg>
