<svg width="24" height="25" viewBox="0 0 24 25" fill="none"
	xmlns="http://www.w3.org/2000/svg">
	<path d="M0 6.68936H5.31064V24.0511H0V6.68936ZM20.3745 7.7617C21.4298 8.34043 22.2979 9.21702 22.9787 10.3915C23.6596 11.566 24 12.766 24 13.9915V24.0511H18.6383V13.9915C18.6383 13.7191 18.5362 13.4128 18.3319 13.0723C18.1277 12.7319 17.9404 12.5106 17.7702 12.4085C17.4979 12.2383 17.1234 12.1532 16.6468 12.1532C16.1702 12.1532 15.7957 12.2213 15.5234 12.3574L13.3277 13.4298V24.0511H7.96596V6.68936H13.3277V7.50638C14.383 7.02979 15.5745 6.80851 16.9021 6.84255C18.2298 6.8766 19.3872 7.18298 20.3745 7.7617ZM2.65532 0C3.40426 0 4.03404 0.255319 4.54468 0.765957C5.05532 1.2766 5.31064 1.90638 5.31064 2.65532C5.31064 3.40426 5.05532 4.04255 4.54468 4.57021C4.03404 5.09787 3.40426 5.3617 2.65532 5.3617C1.90638 5.3617 1.2766 5.09787 0.765957 4.57021C0.255319 4.04255 0 3.40426 0 2.65532C0 1.90638 0.255319 1.2766 0.765957 0.765957C1.2766 0.255319 1.90638 0 2.65532 0Z" fill="white"/>
</svg>
