<svg width="27" height="22" viewBox="0 0 27 22" fill="none"
	xmlns="http://www.w3.org/2000/svg">
	<path d="M22.7806 0H4.0201C2.9539 0 1.93137 0.423545 1.17746 1.17746C0.423545 1.93137 0 2.9539 0 4.0201V17.4204C0 18.4866 0.423545 19.5092 1.17746 20.2631C1.93137 21.017 2.9539 21.4405 4.0201 21.4405H22.7806C23.8468 21.4405 24.8693 21.017 25.6232 20.2631C26.3771 19.5092 26.8007 18.4866 26.8007 17.4204V4.0201C26.8007 2.9539 26.3771 1.93137 25.6232 1.17746C24.8693 0.423545 23.8468 0 22.7806 0ZM21.8827 2.68007L13.4003 9.04522L4.91792 2.68007H21.8827ZM22.7806 18.7605H4.0201C3.6647 18.7605 3.32386 18.6193 3.07255 18.368C2.82125 18.1167 2.68007 17.7758 2.68007 17.4204V4.35511L12.5963 11.7923C12.8283 11.9663 13.1104 12.0603 13.4003 12.0603C13.6903 12.0603 13.9724 11.9663 14.2043 11.7923L24.1206 4.35511V17.4204C24.1206 17.7758 23.9794 18.1167 23.7281 18.368C23.4768 18.6193 23.136 18.7605 22.7806 18.7605Z" fill="white"/>
</svg>
